<?xml version="1.0" encoding="utf-8"?>
<svg width="100px" height="14px" viewBox="0 0 100 14" version="1.1" 
    xmlns:xlink="http://www.w3.org/1999/xlink" 
    xmlns="http://www.w3.org/2000/svg">
    <desc>Created with Lunacy</desc>
    <g id="Group-Copy">
        <path d="M2.84719 4.31588C3.45604 4.31588 4.06489 4.31429 4.6737 4.31786C4.75042 4.31833 4.78338 4.29726 4.80745 4.2219C5.17684 3.06486 5.54881 1.90867 5.92209 0.752915C6.0711 0.291544 6.46341 -0.00189598 6.92021 9.2218e-06C7.38989 0.00199219 7.77832 0.29761 7.92918 0.767029C8.29884 1.91715 8.66977 3.0668 9.03644 4.2179C9.06205 4.29831 9.09823 4.31775 9.17656 4.31759C10.3718 4.31514 11.567 4.31584 12.7622 4.31588C13.252 4.31592 13.6474 4.59734 13.7939 5.0502C13.936 5.48925 13.7839 5.95439 13.3932 6.24286C12.4284 6.95502 11.4615 7.66422 10.4934 8.37163C10.4203 8.42498 10.4003 8.46627 10.4304 8.55893C10.8061 9.71379 11.1808 10.869 11.5461 12.0273C11.7708 12.7402 11.2465 13.4357 10.5119 13.4135C10.284 13.4066 10.0836 13.3206 9.90005 13.1853C9.03313 12.5463 8.16475 11.9093 7.29695 11.2715C7.19593 11.1972 7.09191 11.1267 6.99531 11.047C6.93905 11.0005 6.90118 11.0103 6.84734 11.05C6.0506 11.6379 5.25244 12.2239 4.45444 12.8101C4.26274 12.9509 4.07412 13.0965 3.8777 13.2303C3.27558 13.6405 2.46965 13.3343 2.28053 12.6258C2.22658 12.4238 2.23496 12.2218 2.29883 12.023C2.6713 10.8636 3.04331 9.70399 3.41928 8.54574C3.44524 8.46588 3.42978 8.42852 3.36498 8.38116C2.39958 7.67534 1.43553 6.96765 0.472825 6.2581C-0.0668065 5.86042 -0.157521 5.15576 0.267862 4.67017C0.471786 4.43739 0.732085 4.31794 1.03995 4.31666C1.64234 4.31405 2.24477 4.31588 2.84719 4.31588" id="Fill-1" fill="#FFFFFF" stroke="none" />
        <path d="M2.84719 4.31588C3.45604 4.31588 4.06489 4.31429 4.6737 4.31786C4.75042 4.31833 4.78338 4.29726 4.80745 4.2219C5.17684 3.06486 5.54881 1.90867 5.92209 0.752915C6.0711 0.291544 6.46341 -0.00189598 6.92021 9.2218e-06C7.38989 0.00199219 7.77832 0.29761 7.92918 0.767029C8.29884 1.91715 8.66977 3.0668 9.03644 4.2179C9.06205 4.29831 9.09823 4.31775 9.17656 4.31759C10.3718 4.31514 11.567 4.31584 12.7622 4.31588C13.252 4.31592 13.6474 4.59734 13.7939 5.0502C13.936 5.48925 13.7839 5.95439 13.3932 6.24286C12.4284 6.95502 11.4615 7.66422 10.4934 8.37163C10.4203 8.42498 10.4003 8.46627 10.4304 8.55893C10.8061 9.71379 11.1808 10.869 11.5461 12.0273C11.7708 12.7402 11.2465 13.4357 10.5119 13.4135C10.284 13.4066 10.0836 13.3206 9.90005 13.1853C9.03313 12.5463 8.16475 11.9093 7.29695 11.2715C7.19593 11.1972 7.09191 11.1267 6.99531 11.047C6.93905 11.0005 6.90118 11.0103 6.84734 11.05C6.0506 11.6379 5.25244 12.2239 4.45444 12.8101C4.26274 12.9509 4.07412 13.0965 3.8777 13.2303C3.27558 13.6405 2.46965 13.3343 2.28053 12.6258C2.22658 12.4238 2.23496 12.2218 2.29883 12.023C2.6713 10.8636 3.04331 9.70399 3.41928 8.54574C3.44524 8.46588 3.42978 8.42852 3.36498 8.38116C2.39958 7.67534 1.43553 6.96765 0.472825 6.2581C-0.0668065 5.86042 -0.157521 5.15576 0.267862 4.67017C0.471786 4.43739 0.732085 4.31794 1.03995 4.31666C1.64234 4.31405 2.24477 4.31588 2.84719 4.31588" transform="translate(21.53846 0)" id="Fill-1-Copy" fill="#FFFFFF" stroke="none" />
        <path d="M2.84719 4.31588C3.45604 4.31588 4.06489 4.31429 4.6737 4.31786C4.75042 4.31833 4.78338 4.29726 4.80745 4.2219C5.17684 3.06486 5.54881 1.90867 5.92209 0.752915C6.0711 0.291544 6.46341 -0.00189598 6.92021 9.2218e-06C7.38989 0.00199219 7.77832 0.29761 7.92918 0.767029C8.29884 1.91715 8.66977 3.0668 9.03644 4.2179C9.06205 4.29831 9.09823 4.31775 9.17656 4.31759C10.3718 4.31514 11.567 4.31584 12.7622 4.31588C13.252 4.31592 13.6474 4.59734 13.7939 5.0502C13.936 5.48925 13.7839 5.95439 13.3932 6.24286C12.4284 6.95502 11.4615 7.66422 10.4934 8.37163C10.4203 8.42498 10.4003 8.46627 10.4304 8.55893C10.8061 9.71379 11.1808 10.869 11.5461 12.0273C11.7708 12.7402 11.2465 13.4357 10.5119 13.4135C10.284 13.4066 10.0836 13.3206 9.90005 13.1853C9.03313 12.5463 8.16475 11.9093 7.29695 11.2715C7.19593 11.1972 7.09191 11.1267 6.99531 11.047C6.93905 11.0005 6.90118 11.0103 6.84734 11.05C6.0506 11.6379 5.25244 12.2239 4.45444 12.8101C4.26274 12.9509 4.07412 13.0965 3.8777 13.2303C3.27558 13.6405 2.46965 13.3343 2.28053 12.6258C2.22658 12.4238 2.23496 12.2218 2.29883 12.023C2.6713 10.8636 3.04331 9.70399 3.41928 8.54574C3.44524 8.46588 3.42978 8.42852 3.36498 8.38116C2.39958 7.67534 1.43553 6.96765 0.472825 6.2581C-0.0668065 5.86042 -0.157521 5.15576 0.267862 4.67017C0.471786 4.43739 0.732085 4.31794 1.03995 4.31666C1.64234 4.31405 2.24477 4.31588 2.84719 4.31588" transform="translate(43.07692 0)" id="Fill-1-Copy-2" fill="#FFFFFF" stroke="none" />
        <path d="M2.84719 4.31588C3.45604 4.31588 4.06489 4.31429 4.6737 4.31786C4.75042 4.31833 4.78338 4.29726 4.80745 4.2219C5.17684 3.06486 5.54881 1.90867 5.92209 0.752915C6.0711 0.291544 6.46341 -0.00189598 6.92021 9.2218e-06C7.38989 0.00199219 7.77832 0.29761 7.92918 0.767029C8.29884 1.91715 8.66977 3.0668 9.03644 4.2179C9.06205 4.29831 9.09823 4.31775 9.17656 4.31759C10.3718 4.31514 11.567 4.31584 12.7622 4.31588C13.252 4.31592 13.6474 4.59734 13.7939 5.0502C13.936 5.48925 13.7839 5.95439 13.3932 6.24286C12.4284 6.95502 11.4615 7.66422 10.4934 8.37163C10.4203 8.42498 10.4003 8.46627 10.4304 8.55893C10.8061 9.71379 11.1808 10.869 11.5461 12.0273C11.7708 12.7402 11.2465 13.4357 10.5119 13.4135C10.284 13.4066 10.0836 13.3206 9.90005 13.1853C9.03313 12.5463 8.16475 11.9093 7.29695 11.2715C7.19593 11.1972 7.09191 11.1267 6.99531 11.047C6.93905 11.0005 6.90118 11.0103 6.84734 11.05C6.0506 11.6379 5.25244 12.2239 4.45444 12.8101C4.26274 12.9509 4.07412 13.0965 3.8777 13.2303C3.27558 13.6405 2.46965 13.3343 2.28053 12.6258C2.22658 12.4238 2.23496 12.2218 2.29883 12.023C2.6713 10.8636 3.04331 9.70399 3.41928 8.54574C3.44524 8.46588 3.42978 8.42852 3.36498 8.38116C2.39958 7.67534 1.43553 6.96765 0.472825 6.2581C-0.0668065 5.86042 -0.157521 5.15576 0.267862 4.67017C0.471786 4.43739 0.732085 4.31794 1.03995 4.31666C1.64234 4.31405 2.24477 4.31588 2.84719 4.31588" transform="translate(64.61539 0)" id="Fill-1-Copy-3" fill="#FFFFFF" stroke="none" />
        <path d="M2.84719 4.31588C3.45604 4.31588 4.06489 4.31429 4.6737 4.31786C4.75042 4.31833 4.78338 4.29726 4.80745 4.2219C5.17684 3.06486 5.54881 1.90867 5.92209 0.752915C6.0711 0.291544 6.46341 -0.00189598 6.92021 9.2218e-06C7.38989 0.00199219 7.77832 0.29761 7.92918 0.767029C8.29884 1.91715 8.66977 3.0668 9.03644 4.2179C9.06205 4.29831 9.09823 4.31775 9.17656 4.31759C10.3718 4.31514 11.567 4.31584 12.7622 4.31588C13.252 4.31592 13.6474 4.59734 13.7939 5.0502C13.936 5.48925 13.7839 5.95439 13.3932 6.24286C12.4284 6.95502 11.4615 7.66422 10.4934 8.37163C10.4203 8.42498 10.4003 8.46627 10.4304 8.55893C10.8061 9.71379 11.1808 10.869 11.5461 12.0273C11.7708 12.7402 11.2465 13.4357 10.5119 13.4135C10.284 13.4066 10.0836 13.3206 9.90005 13.1853C9.03313 12.5463 8.16475 11.9093 7.29695 11.2715C7.19593 11.1972 7.09191 11.1267 6.99531 11.047C6.93905 11.0005 6.90118 11.0103 6.84734 11.05C6.0506 11.6379 5.25244 12.2239 4.45444 12.8101C4.26274 12.9509 4.07412 13.0965 3.8777 13.2303C3.27558 13.6405 2.46965 13.3343 2.28053 12.6258C2.22658 12.4238 2.23496 12.2218 2.29883 12.023C2.6713 10.8636 3.04331 9.70399 3.41928 8.54574C3.44524 8.46588 3.42978 8.42852 3.36498 8.38116C2.39958 7.67534 1.43553 6.96765 0.472825 6.2581C-0.0668065 5.86042 -0.157521 5.15576 0.267862 4.67017C0.471786 4.43739 0.732085 4.31794 1.03995 4.31666C1.64234 4.31405 2.24477 4.31588 2.84719 4.31588" transform="translate(86.15385 0)" id="Fill-1-Copy-4" fill="#B9B9B9" stroke="none" />
    </g>
</svg>